<svg width="109" height="26" viewBox="0 0 109 26" fill="none" xmlns="http://www.w3.org/2000/svg">
<path fill-rule="evenodd" clip-rule="evenodd" d="M24.1549 13.025C24.1549 13.025 24.4249 12.925 24.4799 12.9C25.0849 12.66 25.8249 12.125 26.4499 11.69C27.3049 11.095 27.6999 10.68 28.2349 9.72495C28.6499 8.88995 28.7099 8.05995 28.6499 7.04495C28.6499 6.09495 28.2349 4.66495 27.3399 3.70995C26.4449 2.81495 25.4949 2.10495 23.5899 1.74495C22.1049 1.44995 19.4849 1.44995 17.1649 1.44995H0.499939V2.69995C1.92994 2.68495 2.28494 2.71495 2.64494 2.75995C3.47494 2.85995 4.36994 3.35495 4.60994 3.70995C4.90494 4.06495 5.26494 4.71995 5.26494 5.73495V21.925C5.26494 22.52 4.96494 23.115 4.66994 23.475C4.36994 23.83 3.70994 23.955 3.00494 24.07C2.51994 24.15 1.63494 24.25 0.50494 24.25V25.44H17.1699C19.6699 25.44 22.3499 25.5 24.4299 25.38C25.2649 25.32 26.2749 25.025 26.9899 24.665C27.8249 24.19 28.0999 23.99 28.5949 23.415C28.9849 22.965 29.4299 21.985 29.6649 21.39C29.9649 20.675 30.0849 19.785 30.0849 19.07C30.0849 18.235 29.9649 17.405 29.6649 16.69C29.3699 15.975 28.8299 15.32 28.0599 14.725C26.7499 13.715 26.0849 13.575 24.7299 13.175C24.5099 13.11 24.1599 13.025 24.1599 13.025M10.4449 4.30995V2.99995H17.1699C17.9999 3.05995 18.7749 3.05995 19.4299 3.11995C20.7399 3.29995 21.7499 3.83495 22.5849 4.60995C23.2999 5.32495 23.8349 6.15995 23.8949 7.40495C23.8949 8.23995 23.7749 9.30995 23.2399 10.145C22.9399 10.68 22.5249 11.275 21.9899 11.635C21.2149 12.17 20.1449 12.53 18.7749 12.53H10.4449V4.30995ZM25.4399 19.425C25.3199 20.495 25.0849 21.09 24.8449 21.685C24.4899 22.28 24.0699 22.995 23.2949 23.53C22.6399 23.945 21.7499 24.185 20.6149 24.245H10.4399V14.185H17.1649C17.9399 14.185 18.7099 14.185 19.3649 14.245C20.9099 14.365 21.9849 14.72 22.8149 15.14C24.5399 16.09 25.6099 17.875 25.4299 19.425" fill="black"/>
<path fill-rule="evenodd" clip-rule="evenodd" d="M78.9449 3.01C79.7799 3.175 80.3049 3.3 81.2599 3.655C82.9849 4.37 84.1149 5.085 85.1299 6.095C86.1399 7.285 87.2699 8.775 87.6899 9.965H88.1049V0.5H87.4499C86.7349 1.095 84.9849 2.73 84.2699 3.385C84.2699 3.385 84.0099 3.27 83.4599 3C82.6449 2.6 81.5549 2.225 80.3649 1.87C79.6499 1.69 78.6999 1.515 77.5099 1.335C76.3199 1.215 75.1299 1.155 74.4749 1.155C73.5199 1.155 72.5099 1.155 71.6199 1.275C70.7249 1.395 69.7749 1.575 69.0599 1.81C68.2299 2.05 67.4349 2.435 66.7399 2.88C66.1299 3.27 65.8199 3.56 65.2499 4.19C64.6849 4.815 64.3699 5.325 64.1199 5.975C63.8899 6.575 63.6549 7.285 63.7049 8.06C63.7849 9.31 64.0599 10.38 64.7749 11.335C65.4299 12.285 66.6199 13.18 68.4049 13.835C69.5349 14.25 71.3799 14.67 73.3449 15.025L76.8549 15.74C77.9299 15.92 79.2349 16.215 80.3099 16.455C81.3199 16.69 82.3349 16.99 83.0449 17.29C85.0099 18.125 85.3649 19.195 85.1849 20.62C85.0049 22.17 84.0549 23.24 82.4499 23.715C80.6649 24.25 78.8799 24.49 76.4399 24.25C74.5349 24.01 73.5499 23.83 72.0949 23.3C70.8049 22.825 69.8949 22.585 68.5849 21.695C67.1549 20.685 65.9649 19.255 64.9549 17.35C64.7749 16.935 64.6549 16.575 64.5399 16.04H63.7649V25.98H64.4199C64.5999 25.8 67.2749 23.54 67.8699 23.245C68.1099 23.125 68.0499 23.14 68.2849 23.245C69.3549 23.84 70.9649 24.375 72.5699 24.795C73.5199 25.09 75.2499 25.51 76.5599 25.57C79.4749 25.695 81.4349 25.785 83.4649 25.155C84.6499 24.785 85.3699 24.5 86.0849 24.085C86.8599 23.61 87.4549 23.13 87.9299 22.595C88.8199 21.525 89.4149 20.035 89.4149 18.37C89.4149 17.42 89.2849 16.44 88.8199 15.635C88.3899 14.89 87.6899 14.145 86.6799 13.67C85.5499 13.135 84.2999 12.48 82.5149 12.065C80.4899 11.59 78.7049 11.23 76.0299 10.635C73.4099 10.04 70.7349 9.625 69.4849 8.97C68.8299 8.615 68.3549 8.195 68.0549 7.72C67.7549 7.305 67.6399 6.825 67.6399 6.35C67.6399 5.755 67.7899 5.14 68.1149 4.625C68.3899 4.195 68.7699 3.91 69.3049 3.615C69.8999 3.315 70.5549 3.02 71.4499 2.9C72.3999 2.72 73.5299 2.66 74.3649 2.66C74.3649 2.66 76.5249 2.54 78.9549 3.025" fill="black"/>
<path fill-rule="evenodd" clip-rule="evenodd" d="M58.2249 7.16496C56.9149 5.31996 55.1049 3.75996 52.9299 2.75996C50.6999 1.73496 48.9999 1.32996 46.3249 1.32996H46.0849C44.1199 1.38996 42.3349 1.62996 40.6699 2.27996C38.9449 2.93496 37.3099 3.80496 35.9099 4.95996C34.5699 6.06496 33.7649 7.04496 32.9349 8.76996C32.2799 10.32 31.8049 11.985 31.8049 13.65C31.8049 15.315 32.1599 16.865 32.9349 18.41C33.7099 19.9 34.7199 21.265 36.1499 22.335C37.5199 23.525 39.1249 24.36 40.7949 24.955C42.3999 25.55 44.3049 25.79 46.0899 25.79H46.2099C47.9949 25.79 49.5999 25.61 51.3299 24.955C53.0549 24.36 54.7799 23.47 56.2099 22.395C57.5799 21.265 58.4699 20.135 59.2449 18.585C60.0199 17.095 60.4349 15.315 60.4349 13.645C60.4349 11.205 59.7799 9.06496 58.2349 7.15996M54.3099 17.99C53.9499 19.24 53.4149 20.43 52.6449 21.445C51.9299 22.395 51.0299 23.1 49.9099 23.645C48.8349 24.17 47.7649 24.48 46.2799 24.48C46.2199 24.48 46.1599 24.48 46.0999 24.48C44.6699 24.45 43.3149 24.22 42.2899 23.645C41.2899 23.09 40.2399 22.37 39.5549 21.385C38.8749 20.41 38.3049 19.24 37.9499 17.99C37.5949 16.68 37.4149 15.195 37.4149 13.705C37.4149 12.455 37.4449 11.14 37.7149 9.83496C37.9849 8.51996 38.5499 7.39496 39.2049 6.32496C39.8599 5.31496 40.5149 4.53996 41.6449 3.82496C42.7749 3.16996 44.4999 2.63496 46.1099 2.63496H46.1699C47.8349 2.63496 49.4449 3.04996 50.6949 3.82496C51.6449 4.47996 52.4199 5.25496 53.0149 6.14496C53.7299 7.21496 54.1199 8.52996 54.3849 9.89496C54.6049 11.03 54.7999 12.275 54.7999 13.645C54.7999 15.195 54.6799 16.56 54.3249 17.99" fill="black"/>
<path fill-rule="evenodd" clip-rule="evenodd" d="M97.4449 5.18495V21.09C97.4449 21.6849 97.385 22.52 97.03 22.995C96.73 23.41 96.55 23.65 96.015 23.83C95.3 24.07 93.2749 24.125 91.8499 24.125V25.375H108.04L107.98 24.005C106.495 24.065 104.59 24.065 103.815 23.825C103.34 23.645 103.1 23.41 102.805 22.99C102.445 22.5149 102.445 21.8 102.445 21.265V6.97995C102.445 3.70995 102.04 2.88495 105.065 2.63495C105.485 2.59995 106.97 2.57495 108.04 2.57495V1.32495H91.7899V2.59995H93.34C94.355 2.59995 94.3249 2.59495 94.8149 2.63495C97.1099 2.82495 97.43 3.45495 97.45 5.17995" fill="black"/>
</svg>
