<svg xmlns="http://www.w3.org/2000/svg" width="172" height="40" viewBox="0 0 1714 400">
<g>
	<g>
		<g>
			<path d="M1333.5,379.8c-5-1.7-6.7-2.9-6.7-5.2c0-1.9,1.8-3.8,6-3.8c2.9,0,5.2,0.8,6.6,1.4l0.9,0.4l2-5l-0.8-0.4     c-1.2-0.6-4-1.6-8.5-1.6c-7.5,0-12.8,3.9-12.8,9.5c0,6,5.9,8.5,10.3,9.8c5.3,1.7,6.3,3.3,6.3,5.3c0,2.7-2.6,4.4-6.7,4.4     c-2.7,0-5.7-0.7-8.1-1.9l-1-0.5l-1.8,5.2l0.7,0.4c2.2,1.3,6.3,2.2,9.8,2.2c10.2,0,13.8-5.4,13.8-10     C1343.5,384,1338.4,381.5,1333.5,379.8z"></path>
			<path d="M1369,368.8c-2.4-1.9-6.1-2.8-10.9-2.8c-3.2,0-6.2,0.2-9.2,0.6l-0.8,0.1v32.8h6.6v-12.4c1,0.1,2,0.1,2.9,0.1     c5,0,9.2-1.3,11.8-3.7c2.1-1.9,3.2-4.3,3.2-7.4C1372.5,373.1,1371.3,370.5,1369,368.8z M1357.7,382c-1.2,0-2.2-0.1-3-0.2v-10.6     c0.8-0.1,2-0.2,3.5-0.2c2.9,0,7.7,0.7,7.7,5.2C1365.9,381.3,1360.7,382,1357.7,382z"></path>
			<polygon points="1383.6,384.8 1397.9,384.8 1397.9,379.5 1383.6,379.5 1383.6,371.5 1398.7,371.5 1398.7,366.2 1377,366.2      1377,399.5 1399.5,399.5 1399.5,394.2 1383.6,394.2    "></polygon>
			<path d="M1421.9,371c2.6,0,5.1,0.4,7,1.2l0.9,0.4l1.7-5.1l-0.8-0.3c-1-0.5-3.9-1.5-9.1-1.5c-11.8,0-20.1,7.2-20.1,17.4     c0,10.3,7.5,16.9,19.1,16.9c4.6,0,8.2-0.8,10-1.6l0.8-0.3l-1.5-5l-1,0.4c-1.8,0.8-4.7,1.2-7.4,1.2c-8.2,0-13.1-4.4-13.1-11.7     C1408.5,375.5,1413.5,371,1421.9,371z"></path>
			<rect x="1435.3" y="366.2" width="6.6" height="33.3"></rect>
			<path d="M1465.3,366.2h-7l-13.2,33.3h6.9l3.8-9.9h11.7l3.9,9.9h7.1l-13-32.7L1465.3,366.2z M1465.8,384.6h-8.3l3.1-7.8     c0.3-0.9,0.7-1.9,1-3c0.3,1,0.7,2,1.1,3L1465.8,384.6z"></path>
			<polygon points="1488.2,366.2 1481.6,366.2 1481.6,399.5 1503.9,399.5 1503.9,394.2 1488.2,394.2    "></polygon>
			<path d="M1545.5,375.7c-1,1.7-1.9,3.2-2.7,4.7c-0.9-1.6-1.7-3.1-2.9-5.1l-5.4-9.1h-7.2h-0.5h-28.5v5.3h11.1v28h6.7v-28h11.2v-4.6     l11.9,18.5v14h6.7v-14l13.1-19.3h-7.7L1545.5,375.7z"></path>
			<path d="M1584.2,379.8c-5-1.7-6.6-2.9-6.6-5.2c0-1.9,1.8-3.8,6-3.8c2.3,0,4.6,0.5,6.6,1.4l0.9,0.4l2-5l-0.8-0.4     c-1.3-0.6-4-1.6-8.5-1.6c-7.5,0-12.8,3.9-12.8,9.5c0,4.5,3.4,7.7,10.3,9.8c5.2,1.7,6.3,3.3,6.3,5.3c0,2.7-2.6,4.4-6.7,4.4     c-2.7,0-5.7-0.7-8-1.9l-1-0.5l-1.8,5.2l0.7,0.4c2.2,1.2,6.3,2.2,9.8,2.2c10.2,0,13.8-5.4,13.8-10     C1594.2,384,1589.2,381.5,1584.2,379.8z"></path>
			<polygon points="1623.7,366.2 1594.6,366.2 1594.6,371.5 1605.8,371.5 1605.8,399.5 1612.4,399.5 1612.4,371.5 1623.7,371.5         "></polygon>
			<path d="M1640.2,365.7c-10.6,0-18,7.2-18,17.4c0,9.9,7.2,16.9,17.4,16.9c10.7,0,18-7,18-17.5     C1657.6,372.4,1650.6,365.7,1640.2,365.7z M1639.9,394.8c-7.4,0-10.7-6.1-10.7-11.8c0-6.1,3.3-12.2,10.8-12.2     c7.4,0,10.8,6.1,10.8,11.8C1650.7,388.7,1647.4,394.8,1639.9,394.8z"></path>
			<path d="M1684.8,389.7c-0.8-2.8-2.1-4.9-4-6.1c3.5-1.6,5.6-4.6,5.6-8.2c0-2.7-1.2-5.2-3.3-6.7c-2.4-1.9-5.9-2.8-11.2-2.8     c-3.4,0-6.8,0.3-9.3,0.7l-0.8,0.1v32.7h6.6v-13.6h3.5c3.9,0.1,5.5,1.5,6.5,5.4c1.2,4.6,2,6.8,2.6,7.8l0.3,0.4h7.1l-0.9-1.4     C1686.8,396.9,1685.8,393.4,1684.8,389.7z M1679.7,375.9c0,3-2.9,5-7.3,5h-3.9v-9.7c0.8-0.1,2.1-0.2,3.7-0.2     C1675.6,371,1679.7,371.9,1679.7,375.9z"></path>
			<polygon points="1697.7,394.2 1697.7,384.8 1712,384.8 1712,379.5 1697.7,379.5 1697.7,371.5 1712.8,371.5 1712.8,366.2      1691.1,366.2 1691.1,399.5 1713.6,399.5 1713.6,394.2    "></polygon>
		</g>
	</g>
	<g>
		<path d="M289.1,294.8c13.7-8.2,20.6-18.9,20.6-31.8c0-14.5-7.5-26-21.5-33.2c-10.2-5.3-22.5-8-36.5-8h-31.2    c-6.1,0-11.6,1.1-16.5,3.4c-7.6,3.6-11.8,9.7-11.8,17.3v107h25.4v-45h26.2c6.4,0,12.3-0.4,17.7-1.1l25.9,46.1H315l-29.5-52.8    C286.8,296.2,288,295.5,289.1,294.8z M217.5,243.5c0.5-0.1,1.3-0.3,2.4-0.5h31.8c9.1,0,16.7,1.7,22.6,4.9    c6.5,3.6,9.5,8.3,9.5,15.1c0,4.7-1.3,10.7-11.1,15.3c-6.7,3.2-15.2,4.7-25.2,4.7h-29.8V243.5z"></path>
		<path d="M398.2,311.5c0,6.1-2.5,10.4-8.3,13.7c-5.4,3.2-12.2,4.8-20.1,4.8c-8.1,0-15-1.6-20.4-4.7c-5.8-3.4-8.3-7.7-8.3-13.9    v-52.1h-24.6v50.1c0,14.4,6.3,25.8,18.3,33.1c9.2,5.6,21,8.5,35,8.5c13.8,0,25.6-2.9,34.9-8.6c12-7.3,18.4-18.8,18.4-33v-50.1    h-24.9V311.5z"></path>
		<path d="M521,266.6c-9.3-5.7-21.1-8.6-35-8.6c-11,0-20.6,1.8-28.6,5.4v-4.1h-24.7v90.2h24.7v-53.8c0-5.7,2.6-9.5,8.4-12.6    c5.4-2.8,12.2-4.3,20.2-4.3c8,0,14.9,1.6,20.4,4.9c5.8,3.4,8.4,7.6,8.4,13.7v52h24.6v-50C539.4,285.4,533.1,274,521,266.6z"></path>
		<path d="M637.3,266.6c-9.3-5.7-21.1-8.6-35-8.6c-11,0-20.6,1.8-28.6,5.4v-4.1h-24.7v90.2h24.7v-53.8c0-5.7,2.6-9.5,8.4-12.6    c5.4-2.8,12.2-4.3,20.2-4.3c8,0,14.9,1.6,20.4,4.9c5.8,3.4,8.4,7.6,8.4,13.7v52h24.6v-50C655.7,285.4,649.4,274,637.3,266.6z"></path>
		<rect x="663.5" y="259.4" width="24.9" height="90.2"></rect>
		<path d="M675.8,230c-10.6,0-14.3,6.5-14.3,12.1c0,5.7,3.8,12.3,14.3,12.3c10.9,0,14.7-6.6,14.7-12.3    C690.5,236.5,686.7,230,675.8,230z"></path>
		<path d="M788.5,266.6c-9.3-5.7-21.1-8.6-35-8.6c-11,0-20.6,1.8-28.6,5.4v-4.1h-24.7v90.2h24.7v-53.8c0-5.7,2.6-9.5,8.4-12.6    c5.4-2.8,12.1-4.3,20.2-4.3c8,0,14.9,1.6,20.4,4.9c5.8,3.4,8.4,7.6,8.4,13.7v52h24.6v-50C806.9,285.4,800.6,274,788.5,266.6z"></path>
		<path d="M919.8,259.4v7.9c-10.9-6.1-24.1-9.2-39.4-9.2c-15.9,0-29.7,3.1-41,9.2c-15,8.2-22.9,21.1-22.9,37.3    c0,16,8.1,28.8,23.4,37.1c11.5,6.2,25.3,9.4,41,9.4c8.4,0,16.4-0.9,23.8-2.8c3.6-0.9,7.9-2.6,13.2-5.1c0.6-0.3,1.2-0.6,1.8-0.9    c-0.8,6.8-4.2,11.8-10.7,15.5c-6.7,3.8-15.6,5.8-26.4,5.8c-14.7,0-28.2-2.3-40.1-6.9l-6.3-2.4l-10.9,20.7l9,2.5    c11.1,3.1,18.6,5,22.8,5.7c7.2,1.3,15.6,2,25,2c15.9,0,29.5-3.1,40.4-9.1c14.6-8,22.3-20.8,22.3-37v-79.6H919.8z M919.8,308.4v8.2    c-5.1,4.5-11.6,8-19.3,10.5c-5.7,1.9-12.3,2.8-19.6,2.8c-11.1,0-20.3-2-27.5-6c-8-4.5-11.7-10.7-11.7-19.4    c0-8.6,3.7-14.7,11.8-19.2c7.3-4.1,16.5-6.2,27.4-6.2c13.2,0,23.4,3.1,30.3,9.3C916.9,293.5,919.8,300.1,919.8,308.4z"></path>
	</g>
	<g>
		<path d="M1096.4,281c10.6-7.1,13.3-16.1,13.3-23.6c0-9.2-3.9-21.9-22.3-30.2c-10-4.5-21.5-6.8-34.2-6.8l-28.4,0.1    c-6.3,0-11.9,1.2-16.7,3.5c-4.8,2.3-8.2,5.7-10,9.8h-1.6v95.1c0.1,5,2.2,12.1,11.8,16.8c5.1,2.5,10.7,3.8,16.6,3.8h33.4    c13.9,0,26.1-2.1,36.2-6.3c19.6-8.2,23.7-21.7,23.7-31.6C1118.4,301.3,1114.1,289,1096.4,281z M1083.8,258.1c0,1.9,0,7-10.7,11.1    c-6.6,2.5-14.4,3.8-23.1,3.8h-28.1v-30.6c0.5-0.1,1.2-0.3,2.4-0.4h28.8c8.1,0,11.2,0.4,12.4,0.6c3.3,0.6,7,2.2,11.2,4.8    C1083,251.3,1083.8,255.2,1083.8,258.1z M1022,294.3h30.9c26.2,0,39.5,5.9,39.5,17.4c0,4.1,0,16.5-35.8,16.5h-32.1    c-1.1-0.1-1.9-0.3-2.4-0.5L1022,294.3z"></path>
		<path d="M1231.3,267.3c-10.9-6.1-24.1-9.2-39.4-9.2c-16,0-29.8,3.1-41,9.2c-15,8.2-22.9,21.1-22.9,37.3c0,16,8.1,28.8,23.4,37.1    c11.5,6.2,25.3,9.4,41,9.4c7.9,0,15.5-0.9,22.7-2.8c6-1.6,11.4-3.6,16.2-6v7.3h24.9v-90.2h-24.9V267.3z M1231.3,308.4v7.2    c-4.9,4.8-11.7,8.6-20.5,11.4c-5.6,1.9-11.8,2.8-18.5,2.8c-11.1,0-20.3-2-27.5-6c-8-4.5-11.7-10.7-11.7-19.4    c0-8.6,3.7-14.7,11.8-19.2c7.3-4.1,16.5-6.2,27.4-6.2c13.2,0,23.4,3.1,30.2,9.3C1228.4,293.5,1231.3,300.1,1231.3,308.4z"></path>
		<rect x="1269.6" y="223.3" width="24.7" height="126.3"></rect>
		<path d="M1413.1,267.3c-11.3-6.1-25-9.2-40.9-9.2c-15.4,0-28.6,3.1-39.6,9.2v-43.7h-24.9v125.9l24.9,0.2v-7.4    c4.8,2.4,10.2,4.4,16.2,5.9c7.2,1.9,14.9,2.8,22.8,2.8c15.7,0,29.5-3.1,41-9.3c15.3-8.3,23.5-21.1,23.5-37.2    C1436.1,288.4,1428.1,275.5,1413.1,267.3z M1371.7,329.8c-6.6,0-12.9-0.9-18.6-2.8c-8.7-2.8-15.6-6.7-20.5-11.5v-7.2    c0-8.4,2.8-15,8.5-20.2c6.8-6.1,17.1-9.2,30.5-9.2c10.8,0,20,2.1,27.3,6.2c8.1,4.6,11.9,10.7,11.9,19.2c0,8.6-3.7,14.7-11.8,19.2    C1391.8,327.7,1382.6,329.8,1371.7,329.8z"></path>
		<path d="M1551,267.6c-11.6-6.3-25.4-9.6-40.9-9.6c-15.5,0-29.2,3.2-40.9,9.5c-15.4,8.4-23.6,21.2-23.6,37    c0,15.8,8.2,28.6,23.6,36.9c11.7,6.3,25.4,9.5,40.9,9.5c15.5,0,29.2-3.2,40.8-9.5c15.3-8.4,23.4-21.2,23.4-37    C1574.4,288.8,1566.3,276,1551,267.6z M1510.1,329.8c-10.8,0-20-2.1-27.4-6.2c-8.1-4.6-11.9-10.7-11.9-19.1    c0-8.5,3.8-14.6,11.9-19.1c7.3-4.1,16.5-6.2,27.3-6.2c10.7,0,19.9,2.1,27.2,6.2c8.1,4.6,11.8,10.7,11.8,19.2    c0,8.3-3.8,14.4-11.9,19C1529.8,327.6,1520.7,329.8,1510.1,329.8z"></path>
		<path d="M1687.3,259.4v7.9c-10.9-6.1-24.1-9.2-39.4-9.2c-16,0-29.8,3.1-41,9.2c-15,8.2-22.9,21.1-22.9,37.3    c0,16,8.1,28.8,23.4,37.1c11.5,6.2,25.3,9.4,41,9.4c7.9,0,15.5-0.9,22.7-2.8c6-1.6,11.4-3.6,16.2-6v7.3h24.9v-90.2H1687.3z     M1687.3,308.4v7.2c-4.9,4.7-11.7,8.6-20.5,11.4c-5.6,1.9-11.8,2.8-18.4,2.8c-11.1,0-20.3-2-27.5-6c-8-4.5-11.7-10.7-11.7-19.4    c0-8.6,3.8-14.7,11.8-19.2c7.3-4.1,16.5-6.2,27.4-6.2c13.2,0,23.4,3.1,30.3,9.3C1684.4,293.5,1687.3,300.1,1687.3,308.4z"></path>
	</g>
	<g>
		<g>
			<path style="fill:#E1251B;" d="M316.8,147.2h-64c0,0-0.1,0-0.1,0.1H126.1v15h102.5c-2.9,1.9-5.9,3.8-8.6,5.5     c-30.8,20.2-50.7,34.1-50.7,34.1l-4.1,3.1l-4.3,3.3l-0.9,0.7c-0.1,0.1-0.5,0.3-0.8,0.6c-0.7,0.4-1.6,0.9-2.5,1.4     c-7.8,4-21.5,8.3-35.1,11.9c-27.5,7-55.5,13.5-52.9,13.6c-11.5,3.3-22.1,6.8-30,10.7c-8,3.7-13.3,8.1-14.2,10.7     c-0.8,2.6,1.6,2.2,8.5,1c6.9-1.2,18.9-2.8,37.7-4.9c22.3-2.1,49.5-4.4,71.8-8.5c11.1-2.1,21.1-4.6,28.9-8     c1.9-0.8,3.7-1.7,5.7-2.9l3.2-1.9l2.4-1.5c0,0.1,20.2-14.1,50.8-34.2c17.3-11.4,38.2-24.4,61-37.3l22.8-12.2h-0.4     C316.7,147.2,316.7,147.2,316.8,147.2z"></path>
			<path style="fill:#E1251B;" d="M537.5,48.4c-1.5-0.6-1.8-0.6-2.9-0.4c-1.4,0.3-27.1,2.8-64.3,10.6c-22.2,4.6-48.3,11.6-75.5,20.8     H0v15h355c-5.4,2.3-10.8,4.6-16.1,7c-10.2,4.5-20.1,9.4-29.9,14.3H50.2v15H281c0,0-0.1,0-0.1,0.1l69.8,0     c43.6-19.9,89.6-33.7,125.3-41.1c36-7.6,61.1-10,62.3-10.3c0.9-0.2,2.7-1.4,3-1.6C561.7,61.8,547.5,51.8,537.5,48.4z"></path>
		</g>
		<g>
			<path style="fill-rule:evenodd;clip-rule:evenodd;fill:#E1251B;" d="M613.4,31.1c0,17.2-13.9,31.1-31.1,31.1     c-17.2,0-31.1-13.9-31.1-31.1c0-17.2,13.9-31.1,31.1-31.1C599.5,0,613.4,13.9,613.4,31.1z"></path>
		</g>
		<path style="fill-rule:evenodd;clip-rule:evenodd;fill:#E1251B;" d="M487.4,24.2c-4.4-1.5-12.1-3.8-21.9-6.1    c-15.4-3.6-36.4-6.2-57.1-5.6c-20.8,0.5-40.9,3.9-55.5,6.8l-23.9,5c0,0-11.2,3.7-21.8,6.5c-10.6,3-20.8,4.1-19.9,4.4    c-8.6,1.6-16,2.2-18.3,4.4c-1.1,1.1-0.9,2.7,1.7,4.9c2.5,2.1,7.5,4.7,15.7,6.4c9.6,2.5,21.5,2.9,30.6,2.6c9.1-0.3,15.6-1,15.6-0.9    l24-5c14.2-2.9,32.9-6.1,51.5-6.6c18.6-0.7,37.1,1.6,50.8,4.8c5.5,1.3,10.2,2.6,13.9,3.7l-0.1,0.2l8.9,3.1c0,0,28.1-6.2,50.6-8.9    C532.3,43.8,501.2,27.3,487.4,24.2z"></path>
		<g>
			<path style="fill-rule:evenodd;clip-rule:evenodd;fill:#E1251B;" d="M744.1,220.1c-16.3-5.4-35.1-13-49.5-20.2     c-14.4-7.1-24.7-13.3-24.8-13.3c-0.1,0.1-16.2-8-42.1-21.6c-13-6.6-28.9-14.3-47.5-20c-9.2-2.9-19.1-5.2-29.3-6.6     c-10.2-1.4-20-2.1-29.9-2.6c-39.3-1.9-77.9-0.5-107,0.2c-24.9,0.7-42.7,1-48.1,1.1l0,0l-0.6,0c-0.6,0-0.9,0-1.1,0     c0,0-0.1,0-0.1,0l-13.7,0.4c-14.2,4.4-74.3,38.5-74.3,38.5c41.2-5.2,72.9-6.8,88.4-7.2c0,0,0,0,0.1,0c1.1,0,20.9-0.3,49.5-1.1     c28.6-0.7,66.4-2,103.1-0.4c9.1,0.4,18.3,1.1,26.8,2.1c8.2,1.1,16.4,2.8,24.2,5.1c15.5,4.5,29.6,11.1,41.9,17.2     c24.4,12.6,41.8,21.7,41.8,21.5c0-0.1,21.6,9.6,44.2,15.8c22.5,6.5,45.2,8.9,43.3,8.2c18.9,1.7,34.5,0,37.8-2.7     C780.9,231.3,771.9,228.3,744.1,220.1z"></path>
		</g>
	</g>
</g>
</svg>