<svg id="Layer_1" xmlns="http://www.w3.org/2000/svg" viewBox="0 0 175.54 80.61"><defs><style>.cls-1{fill:#1d1d1b;}</style></defs><polygon class="cls-1" points="63.18 24.91 57.99 24.91 57.99 4.41 50.46 4.41 50.46 0 70.71 0 70.71 4.41 63.18 4.41 63.18 24.91"></polygon><polygon class="cls-1" points="77.76 13.74 77.76 24.91 72.56 24.91 72.56 0 77.76 0 77.76 9.44 87.47 9.44 87.47 0 92.68 0 92.68 24.91 87.47 24.91 87.47 13.74 77.76 13.74"></polygon><polygon class="cls-1" points="112.83 4.41 99.75 4.41 99.75 9.65 111.28 9.65 111.28 14.05 99.75 14.05 99.75 20.51 112.83 20.51 112.83 24.91 94.9 24.91 94.9 0 112.83 0 112.83 4.41"></polygon><polygon class="cls-1" points="15.44 27.47 20.3 27.47 20.3 52.38 15.1 52.38 4.93 34.62 4.86 34.62 4.86 52.38 0 52.38 0 27.47 5.48 27.47 15.36 44.82 15.44 44.82 15.44 27.47"></polygon><path class="cls-1" d="M34.63,26.81c3.3,0,11.97,1.43,11.97,13.12s-8.67,13.11-11.97,13.11-11.97-1.43-11.97-13.11,8.68-13.12,11.97-13.12m0,21.83c2.81,0,6.76-1.73,6.76-8.71s-3.95-8.71-6.76-8.71-6.76,1.74-6.76,8.71,3.96,8.71,6.76,8.71"></path><polygon class="cls-1" points="83.31 52.38 78.11 52.38 78.11 31.87 70.57 31.87 70.57 27.47 90.83 27.47 90.83 31.87 83.31 31.87 83.31 52.38"></polygon><polygon class="cls-1" points="97.91 41.21 97.91 52.38 92.71 52.38 92.71 27.47 97.91 27.47 97.91 36.9 107.62 36.9 107.62 27.47 112.83 27.47 112.83 52.38 107.62 52.38 107.62 41.21 97.91 41.21"></polygon><path class="cls-1" d="M48.77,27.47h12.6c6.62,0,7.84,4.89,7.84,7.05,0,2.74-1.4,5.1-3.86,5.93,2.05,.9,3.16,1.66,3.16,6.31,0,3.64,0,4.55,1.11,4.96v.65h-5.76c-.34-1.17-.55-2.46-.55-5.03,0-3.4-.2-4.72-4.07-4.72h-5.37v9.74h-5.1V27.47Zm11.21,10.97c2.71,0,4.02-.94,4.02-3.4,0-1.31-.6-3.26-3.64-3.26h-6.49v6.66h6.11Z"></path><polygon class="cls-1" points="38.59 79.85 33.39 79.85 33.39 54.94 51.11 54.94 51.11 59.35 38.59 59.35 38.59 64.96 49.54 64.96 49.54 69.38 38.59 69.38 38.59 79.85"></polygon><path class="cls-1" d="M53.45,79.85h-5.48l8.88-24.91h6l8.77,24.91h-5.66l-1.59-5.14h-9.19l-1.73,5.14Zm3.13-9.43h6.34l-3.09-9.85h-.06l-3.2,9.85Z"></path><path class="cls-1" d="M87.6,63.18c-.41-1.49-1.22-4.3-5.51-4.3-2.5,0-6.19,1.66-6.19,8.7,0,4.47,1.78,8.51,6.19,8.51,2.88,0,4.89-1.64,5.51-4.69h5.2c-1.04,5.41-4.57,9.19-10.82,9.19-6.63,0-11.38-4.46-11.38-13.08s5.03-13.15,11.46-13.15c7.45,0,10.46,5.14,10.74,8.81h-5.2Z"></path><polygon class="cls-1" points="112.83 59.35 99.75 59.35 99.75 64.58 111.28 64.58 111.28 68.99 99.75 68.99 99.75 75.45 112.83 75.45 112.83 79.85 94.9 79.85 94.9 54.94 112.83 54.94 112.83 59.35"></polygon><path class="cls-1" d="M26.3,72.97c2.09,0,3.83,1.64,3.83,3.8s-1.75,3.85-3.83,3.85-3.85-1.65-3.85-3.85,1.76-3.8,3.85-3.8m0,7.08c1.77,0,3.14-1.41,3.14-3.28s-1.37-3.24-3.14-3.24-3.16,1.41-3.16,3.24,1.37,3.28,3.16,3.28m-1.49-5.5h1.73c1.06,0,1.56,.42,1.56,1.28,0,.81-.51,1.15-1.18,1.22l1.28,1.98h-.74l-1.22-1.92h-.74v1.92h-.7v-4.47Zm.7,1.98h.72c.61,0,1.17-.03,1.17-.73,0-.59-.51-.69-.98-.69h-.92v1.42Z"></path><path class="cls-1" d="M175.54,57.73C175.54,25.82,149.72,0,117.81,0h-1.15V24.91h1.15c18.57,0,33.61,14.91,33.83,33.42h0v21.51h23.9v-22.11Z"></path><path class="cls-1" d="M117.81,54.94h-1.14v24.91h11.95v-14.11c0-5.97-4.83-10.81-10.81-10.81"></path><path class="cls-1" d="M149.09,58.63c-.07-17.22-14.02-31.13-31.25-31.16h-1.17v24.91h1.15c7.38,0,13.36,5.97,13.36,13.36v14.11h17.92v-21.22Z"></path></svg>